<?xml version="1.0" encoding="UTF-8"?>
<svg xmlns="http://www.w3.org/2000/svg" viewBox="0 0 588.64 129.55">
  <title>inspire-logo-main-white</title>
  <path d="M56.67,80.75a38.29,38.29,0,0,1-5,19.26,35.53,35.53,0,0,1-14-2.38l.13-.2c11-18.73,12.11-38.87,4.86-54.64-.55-1.19-1.15-2.36-1.79-3.51s-1.21-2-1.88-3C28,19.79,12.49,18.6,13.69,15.68s25.38,9.68,32.59,22l.31.54c.7,1.19,1.35,2.34,2,3.48C54.27,52.24,56.67,61.1,56.67,80.75Z" style="fill:#fff"></path>
  <ellipse cx="48.01" cy="24.88" rx="5" ry="4.96" transform="translate(-3.53 41.24) rotate(-45)" style="fill:#fff"></ellipse>
  <path d="M102.69,38.63c0,19.49-22.09,45.26-41.36,62.59l-26.19.08-6.62,0S76.92,72.63,93,44.48C105,23.27,85.82,14.82,83.64,13.73a30.49,30.49,0,0,1,12.22,7.59A24.1,24.1,0,0,1,102.69,38.63Z" style="fill:#fff"></path>
  <path d="M102.69,38.63c0,19.49-22.09,45.26-41.36,62.59l-26.19.08v-.08S59.6,86.49,78.44,66.78C93.78,50.74,99,41.45,99,32.35a21.5,21.5,0,0,0-3.15-11A24.1,24.1,0,0,1,102.69,38.63Z" style="fill:#fff"></path>
  <path d="M18.23,37.12v1.94S9.79,47.51,9.79,55.74s6.28,10.18,6.28,10.18v8.23s-13,0-13-11.48C3.07,52.27,11.52,43.83,18.23,37.12Z" style="fill:#fff"></path>
  <path d="M173.49,101.08V62.43a29.39,29.39,0,0,0-.71-7.1A8.74,8.74,0,0,0,170.35,51a9.81,9.81,0,0,0-4.74-2.24A37.23,37.23,0,0,0,158,48.1H137.27a36.51,36.51,0,0,0-7.49.64A10.22,10.22,0,0,0,125,51a8.47,8.47,0,0,0-2.5,4.35,29.45,29.45,0,0,0-.7,7.1v38.65H102.71V61.79a53.07,53.07,0,0,1,1.6-14.07,19.23,19.23,0,0,1,5.44-9.28A23.15,23.15,0,0,1,120,33.32a67.1,67.1,0,0,1,16-1.6h23.16a67.87,67.87,0,0,1,16.13,1.6,23.2,23.2,0,0,1,10.24,5.12A19.21,19.21,0,0,1,191,47.72a53.07,53.07,0,0,1,1.6,14.07v39.29Z" style="fill:#fff"></path>
  <path d="M288.79,82.65a35.91,35.91,0,0,1-.89,8.64,10.58,10.58,0,0,1-3.52,5.7,16.39,16.39,0,0,1-7.17,3.13,59.19,59.19,0,0,1-11.84,1H205.74v-15h57.2q3.84,0,5.38-1.28T269.85,80V77.66q0-3.84-1.47-4.8a9.41,9.41,0,0,0-4.93-1h-38.9A32.44,32.44,0,0,1,215,70.75a12.44,12.44,0,0,1-5.69-3.45,12.08,12.08,0,0,1-2.75-5.7,39.73,39.73,0,0,1-.71-8V48.36a26.91,26.91,0,0,1,1-7.68A11.27,11.27,0,0,1,210,35.49a13.18,13.18,0,0,1,5.89-2.88,41.08,41.08,0,0,1,9.34-.89h26.36V46.18H229.8a6.31,6.31,0,0,0-4,1c-.81.69-1.21,1.92-1.21,3.72v3.19c0,2,.38,3.29,1.15,4a5.47,5.47,0,0,0,3.71,1H267a45.18,45.18,0,0,1,10.88,1.08,14.56,14.56,0,0,1,6.65,3.46,12.37,12.37,0,0,1,3.33,6.14,41.37,41.37,0,0,1,.89,9.28Z" style="fill:#fff"></path>
  <path d="M358.8,31.72a67.87,67.87,0,0,1,16.13,1.6,23.16,23.16,0,0,1,10.23,5.12,19.15,19.15,0,0,1,5.44,9.28,53.07,53.07,0,0,1,1.6,14.07v9.35a52.44,52.44,0,0,1-1.6,14,19.11,19.11,0,0,1-5.44,9.21,23.06,23.06,0,0,1-10.23,5.12,67.87,67.87,0,0,1-16.13,1.6H320.15v20.74H301.08v-60a53.07,53.07,0,0,1,1.6-14.07,19.23,19.23,0,0,1,5.44-9.28,23.15,23.15,0,0,1,10.24-5.12,67.72,67.72,0,0,1,16.12-1.6Zm14.33,30.59a31.67,31.67,0,0,0-.7-7.43,7.79,7.79,0,0,0-2.62-4.35,11,11,0,0,0-5.19-2.05,54.91,54.91,0,0,0-8.25-.51H335.12a36.27,36.27,0,0,0-7.42.64,9.46,9.46,0,0,0-4.61,2.24,8.59,8.59,0,0,0-2.3,4.35,31.42,31.42,0,0,0-.64,7V84.83H356.5a60.94,60.94,0,0,0,8.19-.45,10.4,10.4,0,0,0,5.12-2,7.82,7.82,0,0,0,2.62-4.35,32.38,32.38,0,0,0,.7-7.55Z" style="fill:#fff"></path>
  <path d="M413.19,27.75q-3.58,0-5.05-1.41c-1-.93-1.48-2.43-1.48-4.48V14.44c0-2,.49-3.52,1.48-4.41s2.66-1.35,5.05-1.35h6.27c2.48,0,4.2.45,5.19,1.35s1.47,2.36,1.47,4.41v7.42a6,6,0,0,1-1.47,4.48c-1,.94-2.71,1.41-5.19,1.41Zm-6.53,73.33V33.51h19.46v67.57Z" style="fill:#fff"></path>
  <path d="M441.22,101.08V60.9A43.12,43.12,0,0,1,443,47.59a20.27,20.27,0,0,1,5.69-9,24.22,24.22,0,0,1,10.05-5.19,58.05,58.05,0,0,1,15-1.66h12.42V47.2h-11.9a29.67,29.67,0,0,0-6.66.64A9.19,9.19,0,0,0,463.29,50a8.82,8.82,0,0,0-2.3,4.22,27.39,27.39,0,0,0-.7,6.79v40.05Z" style="fill:#fff"></path>
  <path d="M514,73.44v3.2a20.67,20.67,0,0,0,.51,5.12,5.63,5.63,0,0,0,1.85,3A7.76,7.76,0,0,0,520,86.24a34.48,34.48,0,0,0,5.57.38h22.52v14.46H525.56q-16.51,0-23.55-6.27t-7-20.09v-16A47.28,47.28,0,0,1,496.44,46a16.64,16.64,0,0,1,5.12-8.32,22.4,22.4,0,0,1,9.66-4.54,68.4,68.4,0,0,1,15.23-1.41H560a45.66,45.66,0,0,1,12.35,1.41,20.34,20.34,0,0,1,7.81,3.9,13.33,13.33,0,0,1,4,6,24.34,24.34,0,0,1,1.15,7.62V73.44ZM566.25,52.2c0-2.31-.57-3.84-1.73-4.61s-3.17-1.15-6.07-1.15H526.71a46.13,46.13,0,0,0-6,.32,7.82,7.82,0,0,0-3.9,1.47,6.34,6.34,0,0,0-2.11,3.32,21.59,21.59,0,0,0-.64,5.89v3.71h52.21Z" style="fill:#fff"></path>
</svg>
